<svg width="178" height="178" viewBox="0 0 178 178" fill="none" xmlns="http://www.w3.org/2000/svg">
<rect width="178" height="178" rx="30" fill="#1F2937"/>
<path d="M49.664 124.768C44.544 124.768 39.648 124 34.976 122.464C30.304 120.864 26.624 118.816 23.936 116.32L27.488 108.832C30.048 111.072 33.312 112.928 37.28 114.4C41.248 115.872 45.376 116.608 49.664 116.608C53.568 116.608 56.736 116.16 59.168 115.264C61.6 114.368 63.392 113.152 64.544 111.616C65.696 110.016 66.272 108.224 66.272 106.24C66.272 103.936 65.504 102.08 63.968 100.672C62.496 99.264 60.544 98.144 58.112 97.312C55.744 96.416 53.12 95.648 50.24 95.008C47.36 94.368 44.448 93.632 41.504 92.8C38.624 91.904 35.968 90.784 33.536 89.44C31.168 88.096 29.248 86.304 27.776 84.064C26.304 81.76 25.568 78.816 25.568 75.232C25.568 71.776 26.464 68.608 28.256 65.728C30.112 62.784 32.928 60.448 36.704 58.72C40.544 56.928 45.408 56.032 51.296 56.032C55.2 56.032 59.072 56.544 62.912 57.568C66.752 58.592 70.08 60.064 72.896 61.984L69.728 69.664C66.848 67.744 63.808 66.368 60.608 65.536C57.408 64.64 54.304 64.192 51.296 64.192C47.52 64.192 44.416 64.672 41.984 65.632C39.552 66.592 37.76 67.872 36.608 69.472C35.52 71.072 34.976 72.864 34.976 74.848C34.976 77.216 35.712 79.104 37.184 80.512C38.72 81.92 40.672 83.04 43.04 83.872C45.472 84.704 48.128 85.472 51.008 86.176C53.888 86.816 56.768 87.552 59.648 88.384C62.592 89.216 65.248 90.304 67.616 91.648C70.048 92.992 72 94.784 73.472 97.024C74.944 99.264 75.68 102.144 75.68 105.664C75.68 109.056 74.752 112.224 72.896 115.168C71.04 118.048 68.16 120.384 64.256 122.176C60.416 123.904 55.552 124.768 49.664 124.768ZM137.897 56.8H147.497V124H137.897V56.8ZM99.305 124H89.705V56.8H99.305V124ZM138.761 94.048H98.345V85.696H138.761V94.048Z" fill="white"/>
</svg>
